<?xml version="1.0" standalone="no"?>
<!DOCTYPE svg PUBLIC "-//W3C//DTD SVG 20010904//EN"
 "http://www.w3.org/TR/2001/REC-SVG-20010904/DTD/svg10.dtd">
<svg version="1.0" xmlns="http://www.w3.org/2000/svg"
 width="192.000000pt" height="192.000000pt" viewBox="0 0 192.000000 192.000000"
 preserveAspectRatio="xMidYMid meet">
<metadata>
Created by potrace 1.11, written by Peter Selinger 2001-2013
</metadata>
<g transform="translate(0.000000,192.000000) scale(0.100000,-0.100000)"
fill="#000000" stroke="none">
<path d="M905 1904 c-44 -21 -169 -77 -255 -114 -41 -18 -106 -47 -145 -65
-38 -17 -150 -67 -249 -111 -194 -86 -214 -102 -186 -151 14 -23 171 -98 541
-257 24 -10 62 -27 84 -37 141 -63 251 -109 262 -109 11 0 61 21 268 114 28
13 175 79 329 147 394 175 393 167 11 335 -143 63 -279 124 -302 134 -24 11
-45 20 -47 20 -2 0 -42 17 -88 39 -168 78 -172 80 -223 55z m112 -103 c16 -9
128 -59 580 -257 62 -27 109 -52 105 -55 -4 -4 -90 -44 -192 -89 -102 -45
-218 -98 -258 -116 -41 -19 -75 -34 -77 -34 -2 0 -48 -21 -102 -46 -54 -25
-105 -46 -113 -46 -8 -1 -41 11 -73 25 -32 15 -59 27 -62 27 -2 0 -34 14 -72
31 -93 42 -114 51 -223 99 -131 57 -156 68 -225 99 -33 15 -71 32 -85 38 -24
10 -24 10 20 30 25 11 178 80 340 153 162 72 313 140 335 150 39 18 57 16 102
-9z"/>
<path d="M1765 1304 c-44 -19 -98 -43 -120 -53 -22 -10 -168 -73 -325 -141
-157 -67 -292 -130 -301 -140 -14 -17 -16 -69 -15 -473 1 -431 2 -456 20 -476
11 -12 27 -21 36 -21 9 0 100 36 201 81 101 44 189 82 194 83 6 2 26 10 45 19
19 8 114 50 210 91 96 42 182 85 191 95 14 17 16 71 15 475 -1 488 0 476 -51
489 -11 3 -55 -10 -100 -29z m61 -483 l1 -398 -101 -43 c-56 -24 -128 -56
-161 -70 -33 -15 -85 -37 -115 -50 -30 -12 -83 -36 -118 -51 -34 -16 -65 -29
-67 -29 -2 0 -33 -13 -67 -29 -116 -53 -103 -99 -105 360 l-1 401 66 29 c97
43 124 55 152 67 40 17 120 51 319 138 102 44 188 79 191 77 3 -3 5 -184 6
-402z"/>
<path d="M22 1312 c-18 -18 -19 -44 -17 -473 1 -250 5 -461 9 -470 4 -9 85
-49 179 -89 95 -40 195 -83 222 -95 28 -13 89 -39 138 -59 48 -20 107 -45 132
-56 25 -11 66 -29 92 -41 76 -34 107 -35 126 -6 14 22 16 74 15 477 -2 394 -4
455 -17 470 -18 20 -813 360 -842 360 -10 0 -27 -8 -37 -18z"/>
</g>
</svg>
